<svg viewBox="0 0 1562 436" xmlns="http://www.w3.org/2000/svg" font-family="ui-sans-serif, system-ui, -apple-system, Segoe UI, Roboto, sans-serif">
<rect x="0" y="0" width="1562" height="436" rx="14" fill="#ffffff"/>
<text x="40" y="44" font-size="22" font-weight="800" fill="#15151a">ChainCompiler — roadmap</text>
<text x="40" y="68" font-size="13" fill="#5e5e66">A compiler-compiler for cognition.  ·  updated 2026-06-16</text>
<rect x="40" y="96" width="232" height="300" rx="11" fill="#e9f7ef" stroke="#16a34a" stroke-width="1.6"/>
<text x="56" y="126" font-size="12" font-weight="800" letter-spacing=".08em" fill="#16a34a">P0</text>
<rect x="168" y="112" width="88" height="20" rx="10" fill="#16a34a"/>
<text x="212" y="126" text-anchor="middle" font-size="10.5" font-weight="700" fill="#ffffff">✓ done</text>
<text x="56" y="154" font-size="16" font-weight="800" fill="#15151a">Foundation</text>
<text x="56" y="176" font-size="11.5" fill="#5e5e66">The closed algebra over one</text>
<text x="56" y="192" font-size="11.5" fill="#5e5e66">type — the skill dir.</text>
<text x="56" y="218" font-size="11" fill="#15151a">•  rulecatcher — the linter / gate</text>
<text x="56" y="238" font-size="11" fill="#15151a">•  honeyc — the compiler (+ dietc do…</text>
<text x="56" y="258" font-size="11" fill="#15151a">•  ChainCompiler — substrate + const…</text>
<text x="56" y="278" font-size="11" fill="#15151a">•  ACCC / CORCC / SCCC — the three l…</text>
<text x="56" y="298" font-size="11" fill="#15151a">•  SkillTree — cat-breadcrumb organi…</text>
<text x="56" y="318" font-size="11" fill="#15151a">•  107 tests green</text>
<path d="M270 126 h20" stroke="#c4c4bf" stroke-width="2" marker-end="url(#a)" fill="none"/>
<rect x="290" y="96" width="232" height="300" rx="11" fill="#e9f7ef" stroke="#16a34a" stroke-width="1.6"/>
<text x="306" y="126" font-size="12" font-weight="800" letter-spacing=".08em" fill="#16a34a">P1</text>
<rect x="418" y="112" width="88" height="20" rx="10" fill="#16a34a"/>
<text x="462" y="126" text-anchor="middle" font-size="10.5" font-weight="700" fill="#ffffff">✓ done</text>
<text x="306" y="154" font-size="16" font-weight="800" fill="#15151a">Project Surface</text>
<text x="306" y="176" font-size="11.5" fill="#5e5e66">Make it visible, publishable,</text>
<text x="306" y="192" font-size="11.5" fill="#5e5e66">and self-updating.</text>
<text x="306" y="218" font-size="11" fill="#15151a">•  Roadmap (this) — SVG, regenerated…</text>
<text x="306" y="238" font-size="11" fill="#15151a">•  Website — renders the roadmap dyn…</text>
<text x="306" y="258" font-size="11" fill="#15151a">•  Changelog in the README</text>
<text x="306" y="278" font-size="11" fill="#15151a">•  update_site.py — regenerates site…</text>
<text x="306" y="298" font-size="11" fill="#15151a">•  Deploy workflow — gated on change…</text>
<path d="M520 126 h20" stroke="#c4c4bf" stroke-width="2" marker-end="url(#a)" fill="none"/>
<rect x="540" y="96" width="232" height="300" rx="11" fill="#e9f7ef" stroke="#16a34a" stroke-width="1.6"/>
<text x="556" y="126" font-size="12" font-weight="800" letter-spacing=".08em" fill="#16a34a">P2</text>
<rect x="668" y="112" width="88" height="20" rx="10" fill="#16a34a"/>
<text x="712" y="126" text-anchor="middle" font-size="10.5" font-weight="700" fill="#ffffff">✓ done</text>
<text x="556" y="154" font-size="16" font-weight="800" fill="#15151a">Exchange</text>
<text x="556" y="176" font-size="11.5" fill="#5e5e66">Many skill trees in one repo,</text>
<text x="556" y="192" font-size="11.5" fill="#5e5e66">under a master.</text>
<text x="556" y="218" font-size="11" fill="#15151a">•  YAML/JSON exchange format</text>
<text x="556" y="238" font-size="11" fill="#15151a">•  Multiple skill trees per repo</text>
<text x="556" y="258" font-size="11" fill="#15151a">•  A master system over the trees</text>
<text x="556" y="278" font-size="11" fill="#15151a">•  Loader + validator</text>
<path d="M770 126 h20" stroke="#c4c4bf" stroke-width="2" marker-end="url(#a)" fill="none"/>
<rect x="790" y="96" width="232" height="300" rx="11" fill="#e9f7ef" stroke="#16a34a" stroke-width="1.6"/>
<text x="806" y="126" font-size="12" font-weight="800" letter-spacing=".08em" fill="#16a34a">P3</text>
<rect x="918" y="112" width="88" height="20" rx="10" fill="#16a34a"/>
<text x="962" y="126" text-anchor="middle" font-size="10.5" font-weight="700" fill="#ffffff">✓ done</text>
<text x="806" y="154" font-size="16" font-weight="800" fill="#15151a">Self-Hosting &amp; Self-Interpreter</text>
<text x="806" y="176" font-size="11.5" fill="#5e5e66">The literal self-interpreter —</text>
<text x="806" y="192" font-size="11.5" fill="#5e5e66">an SI for the chain dialect.</text>
<text x="806" y="218" font-size="11" fill="#15151a">•  Self-interpreter (a Python dialec…</text>
<text x="806" y="238" font-size="11" fill="#15151a">•  SI MCP that is ALSO a skill</text>
<text x="806" y="258" font-size="11" fill="#15151a">•  Turn trees / masters into MCPs</text>
<text x="806" y="278" font-size="11" fill="#15151a">•  ChainCompiler compiles itself</text>
<path d="M1020 126 h20" stroke="#c4c4bf" stroke-width="2" marker-end="url(#a)" fill="none"/>
<rect x="1040" y="96" width="232" height="300" rx="11" fill="#eef4ff" stroke="#3b6fd4" stroke-width="1.6"/>
<text x="1056" y="126" font-size="12" font-weight="800" letter-spacing=".08em" fill="#3b6fd4">P4</text>
<rect x="1168" y="112" width="88" height="20" rx="10" fill="#3b6fd4"/>
<text x="1212" y="126" text-anchor="middle" font-size="10.5" font-weight="700" fill="#ffffff">▸ in progress</text>
<text x="1056" y="154" font-size="16" font-weight="800" fill="#15151a">Marketplace</text>
<text x="1056" y="176" font-size="11.5" fill="#5e5e66">Programmatic publish; opt-in</text>
<text x="1056" y="192" font-size="11.5" fill="#5e5e66">public; notify + grow.</text>
<text x="1056" y="218" font-size="11" fill="#15151a">•  Registry + publish/search ✓ (loca…</text>
<text x="1056" y="238" font-size="11" fill="#15151a">•  Opt-in public + notify hook ✓</text>
<text x="1056" y="258" font-size="11" fill="#15151a">•  Hosted endpoint (aspirational)</text>
<text x="1056" y="278" font-size="11" fill="#15151a">•  Cross-user discovery (aspirationa…</text>
<path d="M1270 126 h20" stroke="#c4c4bf" stroke-width="2" marker-end="url(#a)" fill="none"/>
<rect x="1290" y="96" width="232" height="300" rx="11" fill="#e9f7ef" stroke="#16a34a" stroke-width="1.6"/>
<text x="1306" y="126" font-size="12" font-weight="800" letter-spacing=".08em" fill="#16a34a">P5</text>
<rect x="1418" y="112" width="88" height="20" rx="10" fill="#16a34a"/>
<text x="1462" y="126" text-anchor="middle" font-size="10.5" font-weight="700" fill="#ffffff">✓ done</text>
<text x="1306" y="154" font-size="16" font-weight="800" fill="#15151a">Federation</text>
<text x="1306" y="176" font-size="11.5" fill="#5e5e66">Each emitted MCP becomes a</text>
<text x="1306" y="192" font-size="11.5" fill="#5e5e66">repo; marketplaces federate.</text>
<text x="1306" y="208" font-size="11.5" fill="#5e5e66">Plan: FEDERATION.md.</text>
<text x="1306" y="234" font-size="11" fill="#15151a">•  Repo scaffolder (MCP → node repo)…</text>
<text x="1306" y="254" font-size="11" fill="#15151a">•  Marketplace IS a git repo (regist…</text>
<text x="1306" y="274" font-size="11" fill="#15151a">•  Contribution gate: validate + que…</text>
<text x="1306" y="294" font-size="11" fill="#15151a">•  Untrusted-by-default; sandboxed C…</text>
<text x="1306" y="314" font-size="11" fill="#15151a">•  Child marketplaces federate under…</text>
<defs><marker id="a" viewBox="0 0 10 10" refX="8" refY="5" markerWidth="7" markerHeight="7" orient="auto"><path d="M0 0 L10 5 L0 10 z" fill="#c4c4bf"/></marker></defs>
</svg>
